<svg version="1.2" xmlns="http://www.w3.org/2000/svg" viewBox="0 0 600 600" width="100" height="100">
	<style>
		.s0 { fill: #d9000a } 
		.s1 { fill: #fae4c6 } 
		.s2 { fill: #fff4e7 } 
		.s3 { opacity: 2;fill: #fff4e7 } 
	</style>
	<g id="Layer 1">
		<g id="uuid-81f3fa32-c660-45c5-ad1f-5ff94d9463ce">
			<path id="red" class="s0" d="m575 300c0 151.89-123.12 275-275 275-151.88 0-275-123.12-275-275 0-151.88 123.12-275 275-275 151.88 0 275 123.12 275 275z"/>
			<g id="Clip-Path">
				<g>
					<g id="uuid-db79c669-52e9-4b85-9c55-990610be0295">
						<path class="s1" d="m375.23 339.64l-24.3-26.11-44.81 40.41-48.42-61.91-36.04 37.41-32.58-31.71-26.49 15.82c-1 9.21-1.56 18.26-1.56 27 0 94.95 62.27 142.95 138.99 142.95 76.72 0 138.96-48 138.96-142.95 0-8.68-0.54-17.66-1.55-26.82l-62.2 25.9z"/>
						<path class="s2" d="m257.69 292.03l-36.04 37.41-32.58-31.71-26.49 15.82c-1 9.21-1.56 18.26-1.56 27 0 94.95 62.27 142.95 138.99 142.95v-137.35z"/>
						<path class="s1" d="m192.42 269.42l28.73 27.98 38.3-39.79 49.52 63.3 43.34-39.09 28.75 30.91 52.84-22.01c-16.23-84.75-70.01-174.22-133.88-174.22-63.87 0-115.01 85.06-132.68 167.87 0 0 25.08-14.96 25.08-14.95z"/>
						<path class="s3" d="m192.42 269.42l28.73 27.98 38.3-39.79 40.57 51.84v-192.95c-62.28 0-115.01 85.06-132.68 167.87 0 0 25.08-14.96 25.08-14.95z"/>
					</g>
				</g>
			</g>
		</g>
	</g>
</svg>